<svg width="45" height="45" viewBox="0 0 45 45" fill="none" xmlns="http://www.w3.org/2000/svg">
<path d="M39.2869 17.8471C39.066 17.1637 38.4598 16.6784 37.7427 16.6137L28.0015 15.7292L24.1496 6.71344C23.8656 6.0527 23.2188 5.625 22.5001 5.625C21.7814 5.625 21.1346 6.0527 20.8505 6.71499L16.9986 15.7292L7.25593 16.6137C6.54008 16.6799 5.93548 17.1637 5.71326 17.8471C5.49104 18.5306 5.69626 19.2801 6.23778 19.7526L13.6009 26.2102L11.4297 35.7744C11.2708 36.4777 11.5438 37.2046 12.1273 37.6264C12.4409 37.853 12.8078 37.9683 13.1779 37.9683C13.4969 37.9683 13.8134 37.8823 14.0974 37.7124L22.5001 32.6904L30.8997 37.7124C31.5143 38.0821 32.2891 38.0484 32.8713 37.6264C33.4551 37.2033 33.7278 36.4761 33.5689 35.7744L31.3977 26.2102L38.7608 19.7539C39.3023 19.2801 39.5091 18.5318 39.2869 17.8471Z" fill="#DEDEDE"/>
</svg>
